<?xml version="1.0" standalone="no"?>
<!DOCTYPE svg PUBLIC "-//W3C//DTD SVG 20010904//EN"
 "http://www.w3.org/TR/2001/REC-SVG-20010904/DTD/svg10.dtd">
<svg version="1.0" xmlns="http://www.w3.org/2000/svg"
 width="233.000000pt" height="264.000000pt" viewBox="0 0 233.000000 264.000000"
 preserveAspectRatio="xMidYMid meet">
<metadata>
Created by potrace 1.13, written by Peter Selinger 2001-2015
</metadata>
<g transform="translate(0.000000,264.000000) scale(0.100000,-0.100000)"
fill="#000000" stroke="none">
<path d="M15 2573 c3 -32 10 -112 16 -178 5 -66 26 -295 45 -510 19 -214 48
-543 64 -730 17 -187 32 -360 35 -385 3 -25 14 -148 25 -274 11 -127 22 -231
23 -232 1 -1 85 -24 187 -52 310 -85 652 -180 703 -196 40 -12 55 -12 95 -1
26 7 189 52 362 100 173 48 365 101 425 117 61 17 111 31 113 33 4 3 11 83 36
365 9 96 27 301 41 455 14 154 36 406 50 560 31 351 52 585 70 790 8 88 15
168 15 178 0 16 -62 17 -1155 17 l-1156 0 6 -57z m1885 -426 c0 -23 -20 -230
-26 -264 l-5 -33 -554 0 -555 0 1 -27 c1 -16 6 -80 13 -143 l11 -115 533 4
532 4 -5 -44 c-3 -24 -14 -143 -25 -264 -10 -121 -27 -306 -36 -411 l-18 -192
-115 -32 c-64 -18 -194 -54 -290 -81 -95 -27 -181 -49 -190 -49 -15 0 -472
124 -566 154 l-40 13 -17 184 c-9 101 -17 205 -17 232 l-1 47 145 0 c168 0
149 16 162 -140 l8 -95 150 -42 c162 -45 190 -50 179 -31 -5 7 -3 8 6 3 7 -4
76 9 156 31 168 45 147 13 167 250 l13 151 -261 6 c-143 4 -369 7 -501 7
l-241 0 -7 63 c-6 66 -27 299 -51 587 -9 96 -18 187 -21 202 l-6 28 374 3
c1096 8 1098 8 1098 -6z"/>
</g>
</svg>
