<?xml version="1.0" standalone="no"?>
<!DOCTYPE svg PUBLIC "-//W3C//DTD SVG 20010904//EN"
 "http://www.w3.org/TR/2001/REC-SVG-20010904/DTD/svg10.dtd">
<svg version="1.0" xmlns="http://www.w3.org/2000/svg"
 width="789.000000pt" height="615.000000pt" viewBox="0 0 789.000000 615.000000"
 preserveAspectRatio="xMidYMid meet">
<metadata>
Created by potrace 1.13, written by Peter Selinger 2001-2015
</metadata>
<g transform="translate(0.000000,615.000000) scale(0.100000,-0.100000)"
fill="#000000" stroke="none">
<path d="M4735 6106 c-38 -19 -88 -50 -111 -70 -38 -33 -45 -47 -94 -196 -46
-139 -169 -420 -184 -420 -3 0 -17 22 -31 50 -36 70 -109 181 -136 207 -30 27
-107 47 -280 72 -132 18 -140 21 -222 70 -96 58 -222 115 -346 156 -81 27 -84
27 -101 9 -10 -11 -66 -71 -125 -134 -237 -254 -557 -525 -830 -702 l-90 -58
-11 72 c-5 40 -18 97 -28 126 -19 56 -19 55 -108 67 -27 3 -48 10 -48 16 0 13
-220 11 -261 -2 -19 -7 -39 -17 -46 -23 -13 -12 -38 -231 -38 -331 0 -33 3
-90 8 -126 l7 -66 -87 -31 c-49 -17 -226 -72 -394 -121 -416 -123 -556 -176
-622 -239 -67 -64 -237 -324 -322 -492 -103 -205 -184 -458 -210 -658 -15
-117 -19 -269 -9 -334 l6 -37 37 57 c61 94 230 289 357 412 252 245 525 451
874 662 134 81 346 198 359 198 12 0 57 -52 77 -90 31 -58 26 -214 -10 -310
-57 -153 -68 -201 -68 -300 -1 -74 4 -107 21 -152 44 -114 172 -214 271 -212
132 1 631 248 1071 530 64 41 125 74 136 74 58 0 183 -74 183 -108 0 -12 -217
-157 -335 -224 -113 -64 -282 -148 -404 -199 l-103 -43 63 -12 c273 -51 562
-40 705 27 74 36 336 288 439 425 8 10 -8 -42 -36 -116 -138 -368 -159 -446
-140 -515 8 -31 4 -42 -75 -166 -141 -221 -332 -488 -499 -696 l-49 -61 -91
-7 c-220 -16 -401 -56 -465 -103 -52 -38 -273 -393 -392 -630 -94 -187 -264
-488 -281 -499 -6 -4 -13 0 -15 7 -8 23 -84 100 -98 100 -21 0 -86 -106 -129
-208 -87 -209 -126 -528 -89 -725 l6 -29 25 24 c44 40 222 319 353 553 50 89
75 119 159 190 42 35 144 121 226 190 83 70 219 177 303 238 84 60 201 148
260 194 74 58 145 102 232 144 86 42 141 76 175 108 28 27 90 76 139 111 134
93 566 350 566 336 0 -3 -15 -29 -34 -58 -79 -124 -149 -291 -190 -455 -25
-98 -34 -193 -18 -193 27 0 241 176 452 370 121 112 169 144 337 229 122 60
455 198 608 251 185 63 317 130 617 311 79 48 159 95 179 104 35 17 39 24 78
139 22 66 49 154 60 194 19 70 19 74 2 91 -21 21 -472 249 -631 319 -236 103
-324 131 -420 132 l-55 1 95 92 c52 51 154 140 225 199 131 107 174 154 240
263 19 33 61 87 93 120 31 33 65 79 76 102 10 23 26 45 35 49 9 4 390 9 848
12 l832 5 37 -32 c66 -59 92 -66 165 -47 35 9 108 22 161 28 80 9 99 15 104
30 6 21 12 22 106 7 65 -10 73 -9 85 7 28 38 17 50 -89 96 -57 25 -136 58
-176 73 l-74 29 -164 -18 c-146 -16 -167 -17 -182 -4 -43 38 -245 167 -508
326 -189 113 -282 122 -441 38 l-71 -38 -161 76 c-194 91 -426 192 -464 201
-37 10 -39 17 -22 59 8 19 15 40 15 46 0 6 -47 10 -129 10 -144 0 -142 -1
-139 72 1 21 -7 49 -17 65 -11 15 -27 44 -37 63 -12 25 -17 30 -17 15 -1 -11
13 -40 29 -64 17 -24 30 -57 30 -73 0 -33 -27 -98 -41 -98 -4 0 -69 16 -144
35 -163 42 -236 74 -273 123 -25 33 -27 42 -27 131 l0 96 -40 20 c-59 29 -71
86 -31 140 15 20 16 20 65 -7 l51 -28 25 53 c13 30 38 67 55 83 16 16 29 34
29 39 0 6 -18 28 -39 50 l-40 40 30 3 c70 7 285 -73 274 -102 -3 -8 6 -25 20
-38 21 -19 34 -23 68 -19 41 4 41 4 15 12 -55 15 -60 28 -27 65 16 19 35 52
41 74 11 35 10 42 -5 59 -26 29 -98 42 -216 40 -87 -2 -115 2 -160 19 -30 12
-59 22 -65 22 -5 0 -41 -16 -80 -34z m3 -496 c4 0 7 -42 7 -93 0 -112 18 -149
93 -190 54 -29 221 -87 255 -88 21 0 21 -1 2 -8 -11 -5 -26 -6 -33 -3 -7 2
-20 -2 -29 -9 -26 -22 -150 -299 -133 -299 11 0 58 81 85 147 l22 55 11 -29
c28 -75 22 -135 -20 -188 l-21 -27 -186 5 c-193 6 -281 19 -281 42 0 24 -68
252 -104 347 l-35 93 23 40 c31 52 52 69 102 83 42 12 185 100 199 122 4 6 14
9 22 6 8 -3 18 -6 21 -6z m-2763 -271 c9 -9 11 -90 4 -163 -6 -66 -5 -82 8
-91 9 -7 13 -21 10 -36 -3 -22 -6 -20 -22 18 -21 51 -49 59 -153 49 -106 -11
-92 -22 22 -18 l103 4 21 -50 c25 -58 26 -70 11 -109 l-10 -27 -19 42 -19 43
-91 -3 c-49 -2 -90 -7 -90 -12 0 -5 36 -8 79 -7 89 2 95 -2 121 -81 10 -32 9
-42 -6 -68 -20 -34 -39 -37 -72 -14 -26 18 -29 44 -5 44 39 0 -7 21 -58 26
-40 4 -50 3 -39 -5 8 -6 23 -11 32 -11 11 0 24 -14 32 -34 10 -25 24 -37 50
-46 20 -6 43 -10 50 -7 18 7 63 125 80 207 12 62 14 65 43 68 23 2 34 10 43
31 16 39 29 141 18 147 -4 3 -8 -10 -9 -28 -1 -47 -21 -109 -40 -121 -17 -11
-69 -2 -69 11 0 5 13 7 29 4 34 -5 43 6 35 46 -5 23 -13 31 -35 36 -27 5 -29
9 -29 48 0 76 7 88 51 88 51 0 74 -24 88 -89 22 -104 10 -184 -38 -262 -16
-27 -27 -50 -23 -52 4 -3 24 -7 44 -11 31 -6 38 -12 44 -39 17 -77 -5 -155
-58 -204 l-24 -23 -164 66 c-91 35 -176 70 -190 77 -41 21 -53 82 -44 222 5
66 8 163 8 217 l1 96 40 12 c22 7 45 14 50 16 12 5 184 -2 190 -7z m4523 -438
c32 -11 87 -36 123 -56 100 -57 454 -276 480 -298 l24 -19 -25 14 c-14 8 -70
42 -125 75 -207 125 -396 209 -522 233 -76 15 -201 10 -212 -9 -5 -8 -11 -9
-15 -3 -8 13 9 26 74 56 66 31 121 33 198 7z m-1515 -231 c72 -27 140 -88 135
-122 -5 -37 -51 -53 -148 -51 -47 1 -120 9 -164 18 -84 17 -199 22 -256 10
-19 -4 -64 -23 -99 -42 l-64 -34 -66 65 -66 66 55 55 c30 30 58 55 62 55 4 0
8 -22 8 -49 l0 -48 46 -7 c26 -3 79 -6 118 -6 71 0 72 0 111 41 62 64 105 81
195 75 42 -2 100 -14 133 -26z m284 -12 c55 -58 103 -127 103 -149 0 -9 -18
-32 -40 -49 l-40 -32 0 39 c0 48 -26 104 -78 169 -22 29 -38 55 -35 58 17 17
53 2 90 -36z m2384 -173 c128 -48 219 -85 219 -90 0 -20 -17 -35 -39 -35 -37
0 -154 29 -161 39 -5 8 -219 51 -255 51 -8 0 -15 -4 -15 -9 0 -5 45 -17 99
-27 95 -16 100 -19 103 -43 3 -26 1 -26 -117 -48 -66 -13 -130 -23 -143 -23
-13 0 -41 17 -66 40 -37 35 -49 40 -89 40 l-46 0 15 35 c7 19 14 48 14 64 0
28 2 29 33 25 25 -3 314 19 324 25 1 0 57 -19 124 -44z m-2523 -170 c4 -4
-140 -95 -150 -95 -5 0 -21 9 -37 21 -43 32 -103 36 -144 10 -19 -12 -38 -28
-41 -36 -7 -18 -83 -20 -121 -3 -28 12 -33 43 -12 71 27 38 90 46 302 40 110
-3 201 -7 203 -8z m-982 -596 c90 -12 217 -50 289 -86 52 -27 179 -113 173
-118 -2 -2 -21 -6 -43 -9 -22 -2 -86 -15 -143 -27 l-103 -23 -127 32 c-70 18
-134 32 -142 32 -41 0 -43 14 -15 114 15 53 29 96 31 96 1 0 38 -5 80 -11z
m-266 -6 c0 -4 -12 -48 -27 -99 l-26 -92 -51 -5 c-28 -3 -52 -4 -54 -2 -2 1 9
43 24 93 26 88 28 91 63 100 45 12 71 14 71 5z m1438 -424 c116 -45 474 -217
507 -243 16 -13 17 -15 3 -10 -21 7 -22 3 -7 -30 10 -21 7 -30 -20 -70 -66
-96 -129 -125 -367 -170 -20 -4 -27 9 -68 117 -25 66 -43 123 -41 126 3 2 44
7 90 9 47 3 88 8 90 13 5 7 -26 14 -184 47 -32 7 -35 12 -72 112 -21 58 -43
113 -49 123 -15 25 -3 22 118 -24z m-804 -661 c-5 -7 -58 -74 -119 -148 -61
-74 -142 -175 -180 -224 l-68 -88 -27 82 -27 83 45 41 c50 45 161 160 211 218
32 37 49 43 134 46 28 2 36 -1 31 -10z m-1749 -594 c-256 -45 -446 -157 -511
-298 -19 -41 -31 -56 -46 -56 -19 0 -19 2 7 48 62 106 135 208 162 224 15 9
87 30 158 46 198 46 217 50 265 50 36 0 30 -2 -35 -14z"/>
</g>
</svg>
