<svg width="131px" height="19px" viewBox="0 0 131 19" xmlns="http://www.w3.org/2000/svg">
  <defs>
    <radialGradient id="g0" cx="0" cy="0" r="1" gradientUnits="userSpaceOnUse" gradientTransform="rotate(101 29 31) scale(30 180)">
      <stop stop-color="#FF8A00" />
      <stop offset="1" stop-color="#C4E015" />
    </radialGradient>
    <radialGradient id="g1" cx="0" cy="0" r="1" gradientUnits="userSpaceOnUse" gradientTransform="rotate(101 29 31) scale(10 67)">
      <stop stop-color="#FF8A00" />
      <stop offset="1" stop-color="#C4E015" />
    </radialGradient>
  </defs>
  <path d="M0 19l.68-3.259h6.79L6.79 19H0zm13.582 0l.679-3.259h6.79L20.374 19h-6.791zM.679 15.065l.68-3.26h6.79l-.679 3.26H.68zm13.582 0l.679-3.26h6.79l-.678 3.26H14.26zM1.358 11.129l.68-3.258H22.41l-.68 3.258H1.359zm.68-3.935l.678-3.259h6.791l-.679 3.26h-6.79zm13.581 0l.68-3.259h6.79l-.68 3.26h-6.79zM2.716 3.26L3.396 0h6.79l-.679 3.259h-6.79zm13.582 0L16.978 0h6.79l-.68 3.259h-6.79z" fill="url(#g0)" />
  <path d="M21.582 19l.68-3.259h20.372L41.954 19H21.583zm.68-3.935l.678-3.26h6.791l-.679 3.26h-6.79zm12.902 0l.679-3.26h7.47l-.68 3.26h-7.47zM22.94 11.129l.68-3.258h11.544l-.68 3.258H22.94zm.68-3.935l.679-3.259h6.79l-.679 3.26h-6.79zm13.581 0l.68-3.259h6.79l-.679 3.26h-6.79zM24.3 3.26L24.978 0H45.35l-.679 3.259H24.3z" fill="url(#g0)" />
  <path d="M43.164 19l.68-3.259h19.693L62.857 19H43.165zm.68-3.935l.679-3.26h6.79l-.679 3.26h-6.79zm12.902 0l.68-3.26h6.79l-.679 3.26h-6.79zm-12.223-3.936l.679-3.258h6.79l-.678 3.258h-6.791zm.679-3.935l.679-3.259h6.79l-.678 3.26h-6.791zm.679-3.935L46.56 0h9.507l-.679 3.259h-9.507z" fill="url(#g0)" />
  <path d="M64.747 19l.679-3.259h6.79L71.539 19h-6.791zm.679-3.935l.679-3.26h6.79l-.678 3.26h-6.791zm.679-3.936l.679-3.258H84.44l-.679 3.258H66.105zm.679-3.935l.679-3.259h6.79l-.678 3.26h-6.791zm13.582 0l.679-3.259h6.79l-.678 3.26h-6.791zM67.463 3.26L68.143 0h17.655l-.679 3.259H67.463z" fill="url(#g1)" />
  <path d="M86.329 19l.679-3.259h6.79L93.12 19h-6.791zm.679-3.935l.679-3.26h6.79l-.678 3.26h-6.791zm.679-3.936l.68-3.258h17.655l-.679 3.258H87.687zm.68-3.935l.678-3.259h6.791l-.679 3.26h-6.79zm13.581 0l.679-3.259h6.791l-.679 3.26h-6.791zM89.045 3.26L89.725 0h17.656l-.68 3.259H89.045z" fill="url(#g1)" />
  <path d="M110.627 19l.679-3.259h15.619L126.246 19h-15.619zm-2.037-3.935l.679-3.26h6.791l-.679 3.26h-6.791zm13.582 0l.679-3.26h6.791l-.679 3.26h-6.791zm-12.903-3.936l.679-3.258h6.791l-.679 3.258h-6.791zm13.582 0l.679-3.258h6.791l-.679 3.258h-6.791zm-12.903-3.935l.679-3.259h6.791l-.679 3.26h-6.791zm13.582 0l.679-3.259H131l-.679 3.26h-6.791zM113.344 3.26L114.023 0h14.94l-.679 3.259h-14.94z" fill="url(#g1)" />
</svg>