<svg xmlns="http://www.w3.org/2000/svg" fill="none" viewBox="0 0 924 194">
  <path fill="#fff" d="M274.678 77.511c-5.34-5.8408-11.848-10.3465-19.524-13.5172-7.677-3.1707-15.854-4.8395-24.865-4.8395s-17.188 1.6688-24.698 4.8395c-7.509 3.1707-14.017 7.6764-19.524 13.5172-5.507 5.8408-9.679 13.0166-12.683 21.1937-3.003 8.1773-4.505 17.3553-4.505 27.5353 0 10.179 1.502 19.358 4.505 27.702 3.004 8.344 7.176 15.352 12.516 21.193 5.34 5.841 11.848 10.514 19.358 13.684 7.509 3.338 15.853 4.84 25.031 4.84 9.178 0 17.522-1.669 25.032-4.84 7.676-3.337 14.017-7.843 19.524-13.684 5.34-5.841 9.512-13.016 12.516-21.193 3.004-8.344 4.339-17.523 4.339-27.702 0-10.18-1.502-19.358-4.506-27.5353-2.837-8.1771-7.009-15.3529-12.516-21.1937Zm-21.36 79.268c-5.507 7.509-13.183 11.18-22.862 11.18-9.846 0-17.355-3.671-22.862-11.18-5.507-7.51-8.177-17.69-8.177-30.539 0-12.683 2.67-22.863 8.177-30.2054 5.507-7.3427 13.183-11.1809 22.862-11.1809 9.846 0 17.355 3.6713 22.862 11.1809 5.507 7.3424 8.177 17.5224 8.177 30.2054 0 12.849-2.67 23.029-8.177 30.539Zm162.704-79.268c-5.34-5.8408-11.848-10.3465-19.524-13.5172s-15.853-4.8395-24.865-4.8395c-9.011 0-17.188 1.6688-24.697 4.8395-7.51 3.1707-14.018 7.6764-19.525 13.5172-5.507 5.8408-9.679 13.0166-12.682 21.1937-3.004 8.1773-4.506 17.3553-4.506 27.5353 0 10.179 1.502 19.358 4.506 27.702 3.003 8.344 7.175 15.352 12.515 21.193 5.34 5.841 11.849 10.514 19.358 13.684 7.509 3.338 15.853 4.84 25.031 4.84 9.179 0 17.522-1.669 25.032-4.84 7.676-3.337 14.017-7.843 19.524-13.684 5.34-5.841 9.512-13.016 12.516-21.193 3.004-8.344 4.339-17.523 4.339-27.702 0-10.18-1.502-19.358-4.506-27.5353-3.004-8.1771-7.176-15.3529-12.516-21.1937Zm-21.527 79.268c-5.506 7.509-13.183 11.18-22.862 11.18-9.678 0-17.355-3.671-22.862-11.18-5.507-7.51-8.177-17.69-8.177-30.539 0-12.683 2.67-22.863 8.177-30.2054 5.507-7.3427 13.184-11.1809 22.862-11.1809 9.679 0 17.356 3.6713 22.862 11.1809 5.507 7.3424 8.177 17.5224 8.177 30.2054.167 12.849-2.67 23.029-8.177 30.539Zm149.688-4.172c-5.006-6.509-10.346-12.683-15.686-18.524-5.34-5.841-10.513-10.68-15.353-14.852 9.179-9.345 18.19-18.857 27.201-28.7033 9.012-9.8459 17.689-19.1911 25.699-28.3695H531c-2.67 3.1707-5.84 6.6752-9.345 10.8472-3.671 4.1719-7.509 8.5108-11.681 13.0165-4.005 4.5057-8.177 9.0115-12.516 13.5172-4.339 4.5059-8.177 8.6779-12.015 12.5159V.246094L455.739 5.08558V190.321h29.537V131.58c4.339 3.337 8.845 7.176 13.517 11.848 4.506 4.673 9.011 9.512 13.517 14.853 4.506 5.173 8.511 10.68 12.349 16.187 3.838 5.507 7.176 10.847 10.179 15.853h34.21c-3.004-5.507-6.508-11.514-11.014-18.023-4.005-6.675-8.677-13.183-13.851-19.691Zm85.942-93.4527c-7.51 0-14.852 1.335-22.028 4.3389-7.176 2.8369-13.517 7.0089-19.024 12.6828-5.507 5.6739-10.012 12.6828-13.35 21.1936-3.337 8.5104-5.006 18.3564-5.006 29.5374 0 9.679 1.335 18.524 4.005 26.534 2.67 8.01 6.675 15.019 12.015 21.027 5.34 6.007 12.182 10.68 20.526 14.018 8.343 3.337 18.022 5.006 29.37 5.006 4.339 0 8.677-.334 13.016-.668 4.172-.5 8.177-1.168 11.848-1.835 3.672-.668 6.842-1.502 9.846-2.503 2.837-.835 5.006-1.836 6.675-2.504l-3.838-24.197c-3.504 1.502-8.177 2.837-14.018 4.172-6.007 1.335-12.515 2.002-19.691 2.002-12.182 0-21.527-2.836-28.035-8.51-6.508-5.674-10.013-13.518-10.847-23.864h84.439c.167-1.669.334-3.505.334-5.507.167-2.003.167-3.838.167-5.507 0-21.694-5.006-38.0485-14.852-48.8957-10.18-11.014-24.03-16.521-41.552-16.521Zm-28.703 54.5697c.501-3.672 1.335-7.51 2.67-11.014 1.335-3.5047 3.171-6.6754 5.507-9.5124 2.336-2.8369 5.173-5.0064 8.678-6.6751 3.504-1.6688 7.509-2.5032 12.015-2.5032 4.338 0 8.177.8344 11.347 2.3363 3.171 1.5019 5.841 3.6713 8.01 6.3414 2.17 2.6701 3.838 5.8408 5.007 9.512 1.168 3.671 1.668 7.51 1.668 11.682h-54.902v-.167Zm119.65 40.885c-5.507 0-10.179 1.836-14.017 5.507-3.672 3.672-5.674 8.344-5.674 14.018 0 5.674 1.835 10.347 5.674 14.018 3.838 3.671 8.343 5.34 14.017 5.34 5.34 0 10.013-1.836 13.851-5.34 3.838-3.671 5.841-8.177 5.841-14.018 0-5.674-2.003-10.346-5.841-14.018-4.005-3.671-8.511-5.507-13.851-5.507Zm129.496-81.6048c-4.005-4.3389-9.345-7.8433-16.02-10.3465-6.675-2.5032-14.852-3.6714-24.698-3.6714-8.177 0-15.853.6676-23.029 2.0026-7.175 1.335-12.682 2.67-16.353 3.8382l3.671 24.0306c3.671-1.335 8.177-2.5032 14.018-3.5045 5.673-1.0012 12.015-1.5019 18.856-1.5019 5.007 0 9.179.6675 12.516 2.0025 3.338 1.3351 6.008 3.1708 8.01 5.5071 2.003 2.3363 3.505 5.1732 4.339 8.177.834 3.1711 1.168 6.3411 1.168 9.8461v4.839c-4.005-1.001-7.843-1.668-11.514-2.002-3.505-.501-7.009-.668-10.347-.668-7.008 0-13.683.668-20.192 2.003-6.508 1.335-12.015 3.671-17.021 6.842-4.839 3.171-8.844 7.342-11.681 12.349-2.837 5.006-4.339 11.181-4.339 18.69 0 7.677 1.335 14.185 3.838 19.358s6.008 9.512 10.513 12.683c4.506 3.338 10.013 5.674 16.354 7.009 6.341 1.502 13.35 2.169 21.027 2.169 11.514 0 22.027-.667 31.205-2.002 9.179-1.335 16.187-2.503 20.693-3.505v-77.598c0-7.51-.834-14.3519-2.503-20.6933-1.669-6.0076-4.506-11.3478-8.511-15.8535Zm-17.522 95.1208c-4.672 1.001-11.681 1.502-20.859 1.502-7.51 0-13.517-1.335-17.856-4.005-4.339-2.67-6.675-7.51-6.675-14.518 0-3.672.834-6.509 2.503-9.012 1.669-2.336 3.838-4.172 6.508-5.507s5.674-2.169 9.012-2.67c3.337-.501 6.675-.668 9.845-.668 3.671 0 7.176.334 10.346.668 3.171.501 5.507 1.001 7.176 1.502v32.708ZM905.304 6.58789c-5.007 0-9.346 1.66878-13.017 4.83951-3.671 3.3376-5.34 7.8433-5.34 13.5172 0 5.507 1.836 10.0127 5.34 13.1835 3.505 3.3375 7.843 4.8395 13.017 4.8395 4.839 0 9.178-1.6688 12.682-4.8395 3.671-3.3376 5.34-7.6765 5.34-13.1835 0-5.6739-1.835-10.1796-5.34-13.5172-3.504-3.33761-7.843-4.83951-12.682-4.83951Zm14.851 55.73631h-29.537V190.32h29.537V62.3242ZM108.97 129.243c6.341 6.341 8.01 14.852 4.673 23.029-3.338 8.177-10.68 13.017-19.5248 13.017H63.2461L35.044 193.658h59.0742c20.3588 0 37.8808-11.681 45.5568-30.539 7.844-18.857 3.672-39.383-10.68-53.735l-4.839-4.839-19.858 19.859 4.672 4.839ZM28.2021 67.3305V48.4732l41.0515 41.0523L89.1119 69.5 65.0817 45.4694 20.0252.412109H0V158.613l28.2021-28.202V67.3305Z" />
  <path fill="#fff" d="M128.995 84.686c14.352-14.3516 18.524-35.0446 10.68-53.7351C131.832 12.0936 114.477.412109 94.1182.412109H35.044L63.2461 28.6146h30.8721c8.8448 0 16.1868 4.8395 19.5248 13.0166 3.337 8.1771 1.668 16.8548-4.673 23.0293l-6.675 6.6752-56.9047 56.9053-17.1882 17.189L0 173.799v19.859h19.8583l45.7241-45.725 20.8595-20.86 10.1794-10.179L116.48 97.035l12.515-12.349Z" /></svg>