<svg width="144" height="32" viewBox="0 0 144 32" fill="none" xmlns="http://www.w3.org/2000/svg">
  <g fill="#eb7353">
    <path d="M89.7855 11.7246C86.8766 11.7181 84.5251 9.97277 84.5436 7.83236C84.5605 5.72728 86.961 3.99466 89.8362 4.01186C92.7528 4.02921 95.1319 5.77397 95.1242 7.88903C95.1166 9.99488 92.7006 11.7312 89.7855 11.7246Z"></path>
    <path d="M71.3616 23.2897C68.9284 23.2827 66.9624 21.5382 66.979 19.3957C66.9932 17.2914 68.9999 15.5589 71.4046 15.5755C73.8425 15.5945 75.8324 17.3391 75.8253 19.4528C75.8206 21.5596 73.7995 23.2945 71.3616 23.2897ZM71.4021 10.9118C64.8436 10.9118 59.5269 14.727 59.5269 19.4338C59.5269 24.1406 64.8436 27.9561 71.4021 27.9561C77.9607 27.9561 83.2774 24.1406 83.2774 19.4338C83.2774 14.727 77.9607 10.9118 71.4021 10.9118Z"></path>
    <path d="M53.6793 10.9708C51.1297 10.7292 49.0619 11.6886 47.5657 13.7017C46.6299 14.9604 45.9246 16.3904 45.1169 17.7442C45.0129 17.9185 44.9151 18.0965 44.8143 18.2728C44.7807 18.262 44.747 18.2511 44.7132 18.2405C44.7132 11.5977 44.7132 11.3681 44.7132 4.72695C41.9803 4.72695 39.2982 4.72695 36.6221 4.72695C36.6221 14.3591 36.6221 17.5403 36.6221 27.1324C36.6952 27.1451 36.7365 27.1582 36.7778 27.1582C38.9492 27.16 41.1208 27.1679 43.2921 27.1468C43.4452 27.1453 43.6547 26.963 43.7396 26.8101C45.2181 24.1494 46.6796 21.4793 48.1499 18.8139C48.2786 18.5809 48.4035 18.317 48.6029 18.1598C48.7886 18.0134 49.1188 17.8713 49.2997 17.9431C49.5293 18.0341 49.695 18.329 49.8429 18.5645C49.9073 18.6666 49.8611 18.8398 49.8612 18.9807C49.8617 21.5189 49.8615 24.0571 49.8615 26.5951C49.8615 26.7624 49.8615 26.9296 49.8615 27.1244C52.6025 27.1244 55.2849 27.1244 57.9579 27.1244C57.974 27.0599 57.9866 27.033 57.9866 27.0061C57.9848 23.1569 58.0249 19.3068 57.9628 15.4585C57.9267 13.2225 55.9028 11.1815 53.6793 10.9708Z"></path>
    <path d="M29.6078 18.984C28.5464 19.9362 27.6092 20.6946 26.4867 21.3015C22.7971 23.2955 18.2254 22.6573 15.8529 19.8164C14.1143 17.7344 13.8592 15.555 15.0728 13.1533C15.8611 11.5942 17.2094 10.4933 19.0807 9.88127C21.7886 8.99584 24.411 9.30378 26.875 10.7977C27.5947 11.2341 28.222 11.7523 28.8859 12.3009C29.1807 12.5443 29.4852 12.7962 29.7967 13.0384C29.8798 13.1029 29.9575 13.1714 29.9985 13.2075L30.3867 13.5374L34.4964 10.6423L34.0138 10.0495C33.9637 9.98741 33.9219 9.93565 33.8786 9.88496C31.0392 6.56715 27.0159 4.63009 21.9204 4.12786C17.1758 3.65957 12.9091 4.47989 9.23911 6.56485C5.66173 8.59697 3.40598 11.6678 3.05027 14.9898C2.72405 18.038 3.99346 21.0132 6.62519 23.3682C9.96451 26.3564 14.1628 27.8594 19.1468 27.8594C20.6246 27.8594 22.1715 27.7271 23.7857 27.4623C27.3276 26.8815 30.3132 25.3997 32.9135 22.9323C33.1918 22.6681 33.4532 22.3949 33.706 22.1307C33.8207 22.0106 33.9358 21.8906 34.052 21.7713L34.5335 21.2784L30.3977 18.2709L29.6078 18.984Z"></path>
    <path d="M115.249 21.2692C114.466 21.7224 113.759 22.1935 113.001 22.5575C111.087 23.477 109.073 23.7919 107.001 23.2217C105.555 22.8233 104.453 21.9494 103.976 20.4658C103.429 18.7668 104.237 16.9309 106.009 16.0595C108.312 14.9267 110.609 15.1872 112.81 16.3955C113.56 16.8065 114.238 17.3431 114.999 17.8557C115.814 16.7879 116.745 15.573 117.515 14.5328C117.515 14.5328 117.39 14.4095 117.312 14.341C116.889 13.9702 116.473 13.5776 115.997 13.2857C112.214 10.9625 108.15 10.3635 103.854 11.4398C101.365 12.0636 99.1807 13.235 97.5296 15.2646C95.6313 17.6007 95.4838 20.5748 97.1533 23.0741C98.4174 24.9659 100.222 26.1699 102.309 26.9421C106.006 28.3103 109.731 28.2845 113.437 26.9455C114.839 26.4386 116.121 25.7155 117.218 24.6814C117.513 24.4044 117.65 24.2979 117.65 24.2979C117.164 23.7516 116.379 22.7129 115.929 22.1353C115.699 21.8401 115.467 21.5461 115.249 21.2692Z"></path>
    <path d="M85.8062 27.1426C88.5062 27.1426 91.1802 27.1426 93.8879 27.1426C93.8879 22.9679 93.8879 17.5335 93.8879 13.3771C91.1817 13.3771 88.4986 13.3771 85.8062 13.3771C85.8062 17.5427 85.8062 22.9866 85.8062 27.1426Z"></path>
    <path d="M129.287 15.0238C129.401 14.9854 129.517 14.9501 129.634 14.9209C129.637 14.9178 129.639 14.9178 129.642 14.9192C129.666 14.913 129.691 14.9055 129.715 14.9008C130.338 14.7489 130.98 14.7211 131.598 14.7948C131.695 14.8057 131.792 14.8194 131.887 14.8363C132.545 14.9501 133.17 15.1774 133.715 15.4907C133.718 15.4907 133.72 15.4921 133.723 15.4938C133.89 15.5888 134.044 15.7056 134.173 15.8332C134.658 16.3061 134.819 16.9189 134.131 17.074C133.994 17.1048 133.257 17.2722 133.21 17.2815C132.916 17.3428 132.621 17.4044 132.328 17.4641C131.368 17.6638 130.408 17.8619 129.448 18.0601C129.25 18.1017 129.049 18.143 128.848 18.1846C128.493 18.2582 128.14 18.3321 127.786 18.4056C127.422 18.4809 127.06 18.5563 126.699 18.6316C126.699 18.6316 126.699 18.6316 126.697 18.6316C126.687 18.5654 126.676 18.4886 126.668 18.4056C126.665 18.3918 126.664 18.378 126.664 18.3643V18.3582C126.659 18.3321 126.658 18.306 126.654 18.2799C126.653 18.2643 126.653 18.2491 126.653 18.2338C126.651 18.2075 126.65 18.1814 126.648 18.1538C126.647 18.1369 126.647 18.1201 126.647 18.1017C126.642 17.9172 126.651 17.7177 126.688 17.5164C126.853 16.615 127.641 15.7503 128.8 15.2202C128.845 15.1989 128.891 15.1788 128.937 15.1588C128.971 15.1434 129.003 15.1296 129.037 15.1173C129.04 15.1159 129.041 15.1159 129.044 15.1142C129.124 15.0837 129.206 15.0513 129.287 15.0238ZM138.614 22.1764C138.384 21.8815 138.152 21.5864 137.934 21.31C137.151 21.7631 136.444 22.2347 135.687 22.5988C133.772 23.5171 131.76 23.8319 129.688 23.2621C128.582 22.9581 127.68 22.3774 127.103 21.4607L138.842 19.1613V19.1611C139.736 18.9659 140.035 18.1753 140.027 17.0573C139.932 12.9993 134.153 9.76646 126.539 11.4804C124.036 12.0442 121.866 13.276 120.216 15.3049C118.316 17.6409 118.169 20.6159 119.838 23.1147C121.102 25.007 122.908 26.211 124.994 26.9837C128.691 28.3505 132.417 28.3261 136.122 26.9866C137.524 26.4798 138.808 25.7564 139.905 24.7229C140.198 24.4447 140.335 24.3389 140.335 24.3389C139.849 23.792 139.066 22.7539 138.614 22.1764Z"></path>
  </g>
</svg>