<svg viewBox="0 0 130 32" xmlns="http://www.w3.org/2000/svg">
  <g fill="#ffffff">
    <path fill-rule="evenodd" d="M15.996 0h2.249c-.48.64-1.13 1.44-1.45 2.4h-2.099v.15c-.16.8.67.8 1.15.8 0 0 .15 1.29.15 1.45.16.8-.3 1.3-.3 2.1-.16.48-.02 1.28.3 1.6.16.16.14.15.3.15h.2c.64 2.08 1.919 4.33 3.199 6.25-.16.8-.68 1.56-1 2.2-.32.48-.48.97-.8 1.45-.16.64-.12 1.12.2 1.6.8 1.12 2.23.63 3.35.95.319.16.639.34.799.5.32.48.49 1.11.65 1.75.32.64.44 1.31.6 1.95.16.48.34 1.12.5 1.6a14.054 14.054 0 005.298-8.65c.8-1.12 1.74-2.41 2.7-3.85V16c0 8.8-7.199 16-15.996 16C7.198 32 0 24.8 0 16S7.198 0 15.996 0zm9.597 0c3.519 0 6.398 2.88 6.398 6.4 0 3.52-6.398 11.2-6.398 11.2s-6.398-7.68-6.398-11.2c0-3.52 2.879-6.4 6.398-6.4zm0 4c-1.28 0-2.4 1.12-2.4 2.4 0 1.28 1.12 2.4 2.4 2.4 1.28 0 2.4-1.12 2.4-2.4 0-1.28-1.12-2.4-2.4-2.4zm-15.995.95c-.58.04-1.19.19-1.75.35C4.65 7.86 2.55 11.68 2.55 16v1.3c.64.8 1.46 1.41 2.1 2.05.8.48 2.069.5 2.549 1.3.48.64.3 1.45.3 2.25.16.8.68 1.75 1 2.55.16.48.29.96.45 1.6v.3c1.119.8 2.269 1.28 3.548 1.6.16-.16.3-.45.3-.45.32-.48.66-1.13 1.3-1.45.32-.16.63-.33.95-.65.32-.32.49-.97.65-1.45.16-.48.3-1.12.3-1.6 0-.32-.18-.49-.5-.65-.96-.32-2.06-.3-2.7-1.1-.16-.32-.14-.63-.3-.95-.32-.32-1.12-.49-1.6-.65H7.699c-.64 0-.83-.82-1.15-1.3-.159-.16-.289-.45-.449-.45-.32 0-.68.16-1 0-.16-.16-.15-.34-.15-.5 0-.48.33-.93.65-1.25.48-.48.97-.01 1.45.15.16 0 .14.15.3.15.48.32.65.82.65 1.3v.3s.14.15.3.15c.16-.8.35-1.6.35-2.4 0-.8.95-1.93 1.749-2.25.32-.16.48.16.8 0 .96-.32 3.219-1.27 2.899-2.55-.32-1.12-1.32-2.21-2.6-2.05-.32.16-.48.29-.8.45-.32.32-1.419 1.3-1.899 1.3-.8-.16-.81-1.27-.65-1.75.16-.64 1.6-2.72 2.4-2.4.32.16.64.44.8.6.32.16.82.2 1.3.2.16 0 .29-.04.45-.2.16 0 .2-.14.2-.3 0-.48-.48-.98-.8-1.3-.32-.32-.82-.64-1.3-.8-.48-.16-1.02-.19-1.6-.15zM124.016 14.149c-.131 1.815-.801 3.244-2.01 4.287-1.208 1.043-2.801 1.564-4.778 1.564-2.162 0-3.863-.728-5.102-2.184-1.24-1.456-1.859-3.455-1.859-5.996v-1.031c0-1.623.285-3.051.857-4.287.571-1.236 1.388-2.184 2.45-2.845 1.061-.66 2.295-.99 3.7-.99 1.946 0 3.514.52 4.703 1.564 1.189 1.042 1.877 2.506 2.062 4.39h-3.475c-.085-1.088-.388-1.878-.909-2.368-.521-.491-1.315-.736-2.381-.736-1.158 0-2.025.415-2.6 1.245-.575.83-.871 2.119-.886 3.864v1.275c0 1.823.276 3.155.828 3.997.552.842 1.423 1.263 2.612 1.263 1.074 0 1.875-.245 2.404-.736.529-.49.832-1.249.909-2.276h3.475zm-62.751 2.143h6.093l1.17 3.476h3.695L65.91 2.898h-3.22l-6.279 16.87h3.695l1.159-3.476zm-18.61 3.476V2.898h5.19c1.482 0 2.808.334 3.978 1.002 1.17.669 2.083 1.619 2.74 2.85.656 1.233.984 2.633.984 4.2v.777c0 1.568-.322 2.962-.967 4.183a6.928 6.928 0 01-2.728 2.838c-1.174.672-2.498 1.012-3.973 1.02h-5.224zm3.476-14.054v11.262h1.68c1.359 0 2.397-.444 3.115-1.333.719-.888 1.085-2.159 1.1-3.812v-.892c0-1.715-.354-3.014-1.065-3.899-.71-.884-1.749-1.326-3.116-1.326h-1.714zm16.072 7.763h4.216L64.3 7.162l-2.096 6.315zM81.634 2.898l-3.822 12.687-3.8-12.687h-3.856l5.849 16.87h3.626l5.872-16.87h-3.868zm9.16 16.87h-3.477V2.898h3.476v16.87zm13.465 0h3.475V2.898h-3.463v11.123L97.495 2.898H94.02v16.87h3.475v-11.1l6.764 11.1zm22.266 0h3.476V2.898h-3.476v16.87z"></path>
    <path class="subtitle" fill-rule="evenodd" d="M89.803 28.554c0-.342-.12-.606-.36-.791-.241-.186-.675-.373-1.302-.562-.627-.189-1.126-.399-1.497-.63-.71-.446-1.064-1.027-1.064-1.744 0-.628.256-1.145.767-1.55.512-.407 1.175-.61 1.992-.61.541 0 1.024.1 1.448.299.425.2.758.484 1 .853s.364.778.364 1.227h-1.347c0-.406-.128-.724-.383-.954-.255-.23-.619-.345-1.093-.345-.442 0-.785.094-1.03.283-.243.19-.365.453-.365.792 0 .285.131.523.395.713.264.191.699.377 1.305.557.606.18 1.092.385 1.46.615.366.23.635.493.806.791.171.298.257.646.257 1.046 0 .648-.249 1.164-.746 1.548-.497.383-1.171.575-2.023.575-.563 0-1.081-.105-1.553-.313-.472-.209-.84-.497-1.102-.864a2.152 2.152 0 01-.392-1.283h1.352c0 .442.146.784.438 1.026.293.243.711.364 1.257.364.47 0 .824-.095 1.061-.286a.923.923 0 00.356-.757zM51.24 27.56h1.507l1.561 3h1.449v-.07l-1.748-3.246c.449-.189.799-.459 1.05-.81.252-.351.377-.787.377-1.308 0-.763-.244-1.345-.732-1.748-.489-.403-1.182-.605-2.08-.605h-2.737v7.787h1.352v-3zm-4.837-3.696h2.427v-1.09h-6.175v1.09h2.406v6.696h1.342v-6.696zm4.837 2.61h1.39c.456 0 .813-.115 1.07-.345.256-.23.384-.545.384-.944 0-.417-.118-.74-.355-.968-.237-.228-.591-.345-1.062-.353H51.24v2.61zm6.857 2.273h3.015l.637 1.813h1.411l-2.946-7.787h-1.213l-2.94 7.787h1.405l.631-1.813zm2.636-1.091l-1.128-3.23-1.128 3.23h2.256zm7.654-4.883l-1.978 6.091-1.957-6.09h-1.48l2.79 7.785h1.31l2.801-7.786h-1.486zm6.949 4.31h-3.197v2.396h3.737v1.08h-5.09v-7.786h5.052v1.091h-3.7v2.15h3.198v1.07zm6.563 2.396h-3.534v-6.706h-1.352v7.787h4.886v-1.08zm14.81-6.706l-1.79 3.69-1.792-3.69h-1.502l2.614 4.92v2.866h1.358v-2.866l2.61-4.92h-1.498zm6.361 5.781c0-.342-.12-.606-.361-.791-.241-.186-.675-.373-1.302-.562-.627-.189-1.126-.399-1.497-.63-.709-.446-1.064-1.027-1.064-1.744 0-.628.256-1.145.767-1.55.512-.407 1.176-.61 1.992-.61.542 0 1.025.1 1.449.299.424.2.757.484.999.853.243.369.364.778.364 1.227h-1.347c0-.406-.128-.724-.382-.954-.255-.23-.62-.345-1.094-.345-.442 0-.785.094-1.029.283-.244.19-.366.453-.366.792 0 .285.132.523.396.713.263.191.698.377 1.304.557.606.18 1.092.385 1.459.615.368.23.637.493.808.791.171.298.256.646.256 1.046 0 .648-.248 1.164-.745 1.548-.498.383-1.172.575-2.024.575a3.802 3.802 0 01-1.553-.313c-.472-.209-.84-.497-1.101-.864a2.153 2.153 0 01-.393-1.283h1.352c0 .442.146.784.439 1.026.292.243.711.364 1.256.364.471 0 .824-.095 1.061-.286a.924.924 0 00.356-.757zm5.772-4.69h2.427v-1.09h-6.174v1.09h2.405v6.695h1.342v-6.695zm8.034 3.22h-3.197v2.395h3.737v1.08h-5.089v-7.786h5.052v1.091h-3.7v2.15h3.197v1.07zm5.676 1.657l-2.245-5.968h-1.754v7.787h1.348v-2.567l-.134-3.428 2.293 5.994h.968l2.299-6-.134 3.434v2.567h1.347v-7.787h-1.748l-2.24 5.968z"></path>
  </g>
</svg>